<?xml version="1.0" encoding="utf-8"?>
<!-- Generator: Adobe Illustrator 16.0.4, SVG Export Plug-In . SVG Version: 6.00 Build 0)  -->
<!DOCTYPE svg PUBLIC "-//W3C//DTD SVG 1.1//EN" "http://www.w3.org/Graphics/SVG/1.1/DTD/svg11.dtd">
<svg version="1.1" id="Layer_1" xmlns="http://www.w3.org/2000/svg" xmlns:xlink="http://www.w3.org/1999/xlink" x="0px" y="0px"
	 width="309.5px" height="208px" viewBox="0 0 309.5 208" enable-background="new 0 0 309.5 208" xml:space="preserve">
<g id="Layer_2">
</g>
<g id="heart_1_">
	<path fill="none" stroke="#000000" stroke-width="10" stroke-linecap="round" stroke-linejoin="round" stroke-miterlimit="10" d="
		M-1.341-79.776c-48.08-27.645-45.676-57.695-45.676-57.695c0-17.547,14.184-31.731,31.733-31.731
		c9.616,0,18.029,4.326,24.039,10.816c5.77-6.73,14.423-10.816,24.04-10.816c17.549,0,31.732,14.185,31.732,31.731
		c0,0,2.404,30.291-45.675,57.695h96.639"/>
</g>
<g id="pencil">
	
		<polygon fill="none" stroke="#000000" stroke-width="10" stroke-linecap="round" stroke-linejoin="round" stroke-miterlimit="10" points="
		170.07,-77.004 115.331,-75.589 104.792,-129.325 192.295,-238.497 219.543,-230.211 241.303,-212.771 257.574,-186.176 	"/>
	
		<polygon fill="none" stroke="#000000" stroke-width="10" stroke-linecap="round" stroke-linejoin="round" stroke-miterlimit="10" points="
		170.07,-77.004 115.331,-75.589 104.792,-129.325 192.295,-238.497 219.543,-230.211 241.303,-212.771 257.574,-186.176 	"/>
	
		<polyline fill="none" stroke="#000000" stroke-width="10" stroke-linecap="round" stroke-linejoin="round" stroke-miterlimit="10" points="
		104.792,-129.325 132.72,-124.193 158.043,-103.896 170.07,-77.004 	"/>
	
		<polyline fill="none" stroke="#000000" stroke-width="10" stroke-linecap="round" stroke-linejoin="round" stroke-miterlimit="10" points="
		104.792,-129.325 132.72,-124.193 158.043,-103.896 170.07,-77.004 	"/>
	
		<line fill="none" stroke="#000000" stroke-width="10" stroke-linecap="round" stroke-linejoin="round" stroke-miterlimit="10" x1="219.543" y1="-230.211" x2="133.845" y2="-123.29"/>
	
		<line fill="none" stroke="#000000" stroke-width="10" stroke-linecap="round" stroke-linejoin="round" stroke-miterlimit="10" x1="219.543" y1="-230.211" x2="133.845" y2="-123.29"/>
	
		<line fill="none" stroke="#000000" stroke-width="10" stroke-linecap="round" stroke-linejoin="round" stroke-miterlimit="10" x1="241.303" y1="-212.771" x2="155.605" y2="-105.851"/>
	
		<line fill="none" stroke="#000000" stroke-width="10" stroke-linecap="round" stroke-linejoin="round" stroke-miterlimit="10" x1="241.303" y1="-212.771" x2="155.605" y2="-105.851"/>
	<path fill="none" stroke="#000000" stroke-width="10" stroke-linecap="round" stroke-linejoin="round" stroke-miterlimit="10" d="
		M135.793-76.133c-0.109-5.632-2.805-11.492-7.495-15.25c-4.878-3.909-10.995-5.115-16.516-3.994l3.886,19.751L135.793-76.133z"/>
	<path fill="none" stroke="#000000" stroke-width="10" stroke-linecap="round" stroke-linejoin="round" stroke-miterlimit="10" d="
		M135.793-76.133c-0.109-5.632-2.805-11.492-7.495-15.25c-4.878-3.909-10.995-5.115-16.516-3.994l3.886,19.751L135.793-76.133z"/>
</g>
<g id="heart">
	<path d="M52.883,200.54c-0.845,0-1.702-0.215-2.487-0.666C1.68,171.862,1.853,140.774,2.02,137.449
		c0.08-20.26,16.587-36.716,36.866-36.716c8.809,0,17.186,3.123,24.053,8.885c6.583-5.696,15.162-8.885,24.229-8.885
		c20.278,0,36.786,16.456,36.866,36.716c0.149,2.957,0.315,28.036-33.895,53.09h54.918c2.761,0,5,2.238,5,5s-2.239,5-5,5H73.167
		c-2.268,0-4.252-1.526-4.833-3.72c-0.581-2.192,0.386-4.501,2.357-5.624c23.396-13.336,33.942-27.175,38.669-36.435
		c5.036-9.866,4.691-16.745,4.687-16.813c-0.006-0.1-0.012-0.248-0.012-0.348c0-14.814-12.052-26.866-26.866-26.866
		c-7.963,0-15.378,3.323-20.345,9.117c-0.928,1.083-2.274,1.718-3.7,1.745c-1.463,0.035-2.796-0.556-3.765-1.602
		c-5.531-5.972-12.802-9.261-20.473-9.261c-14.814,0-26.867,12.052-26.867,26.866c0,0.133-0.005,0.266-0.016,0.398
		c-0.013,0.225-1.117,27.623,43.377,53.206c2.394,1.377,3.219,4.434,1.842,6.827C56.298,199.64,54.615,200.54,52.883,200.54z"/>
</g>
<g id="pencil_1_">
	<path d="M199.913,204.214c-0.139,0-0.279-0.006-0.419-0.018l-54.796-4.608c-2.431-0.204-4.359-2.133-4.563-4.563l-4.608-54.797
		c-0.124-1.467,0.406-2.913,1.447-3.954l99.35-99.35c1.445-1.446,3.625-1.866,5.505-1.06l26.288,11.267
		c0.585,0.25,1.116,0.61,1.565,1.06l19.803,19.801c0.409,0.409,0.744,0.886,0.99,1.409l13.314,28.337
		c0.896,1.908,0.5,4.172-0.99,5.662l-99.35,99.349C202.507,203.69,201.233,204.214,199.913,204.214z M149.745,189.978l48.273,4.06
		l95.226-95.225l-11.449-24.368l-18.504-18.502l-22.292-9.554l-95.314,95.315L149.745,189.978z"/>
	<path d="M199.913,204.214c-0.139,0-0.279-0.006-0.419-0.018l-54.796-4.608c-2.431-0.204-4.359-2.133-4.563-4.563l-4.608-54.797
		c-0.124-1.467,0.406-2.913,1.447-3.954l99.35-99.35c1.445-1.446,3.625-1.866,5.505-1.06l26.288,11.267
		c0.585,0.25,1.116,0.61,1.565,1.06l19.803,19.801c0.409,0.409,0.744,0.886,0.99,1.409l13.314,28.337
		c0.896,1.908,0.5,4.172-0.99,5.662l-99.35,99.349C202.507,203.69,201.233,204.214,199.913,204.214z M149.745,189.978l48.273,4.06
		l95.226-95.225l-11.449-24.368l-18.504-18.502l-22.292-9.554l-95.314,95.315L149.745,189.978z"/>
	<path d="M199.912,204.215c-2.114,0.001-4.078-1.351-4.76-3.472l-8.678-27.015l-21.299-21.299l-26.104-7.832
		c-2.645-0.794-4.146-3.581-3.352-6.226c0.793-2.646,3.582-4.143,6.226-3.353l27.312,8.194c0.793,0.237,1.514,0.669,2.099,1.254
		l23.045,23.045c0.562,0.562,0.982,1.249,1.226,2.006l9.048,28.166c0.844,2.629-0.603,5.445-3.231,6.29
		C200.935,204.138,200.419,204.215,199.912,204.215z"/>
	<path d="M199.912,204.215c-2.114,0.001-4.078-1.351-4.76-3.472l-8.678-27.015l-21.299-21.299l-26.104-7.832
		c-2.645-0.794-4.146-3.581-3.352-6.226c0.793-2.646,3.582-4.143,6.226-3.353l27.312,8.194c0.793,0.237,1.514,0.669,2.099,1.254
		l23.045,23.045c0.562,0.562,0.982,1.249,1.226,2.006l9.048,28.166c0.844,2.629-0.603,5.445-3.231,6.29
		C200.935,204.138,200.419,204.215,199.912,204.215z"/>
	<path d="M168.845,154.027c-1.279,0-2.56-0.488-3.535-1.465c-1.953-1.952-1.953-5.118,0-7.07L262.61,48.19
		c1.951-1.952,5.119-1.952,7.07,0c1.953,1.953,1.953,5.119,0,7.071l-97.301,97.301C171.404,153.539,170.124,154.027,168.845,154.027
		z"/>
	<path d="M168.845,154.027c-1.279,0-2.56-0.488-3.535-1.465c-1.953-1.952-1.953-5.118,0-7.07L262.61,48.19
		c1.951-1.952,5.119-1.952,7.07,0c1.953,1.953,1.953,5.119,0,7.071l-97.301,97.301C171.404,153.539,170.124,154.027,168.845,154.027
		z"/>
	<path d="M188.646,173.829c-1.279,0-2.56-0.488-3.535-1.465c-1.953-1.952-1.953-5.118,0-7.07l97.302-97.303
		c1.951-1.952,5.119-1.952,7.07,0c1.953,1.953,1.953,5.119,0,7.071l-97.302,97.302C191.206,173.341,189.926,173.829,188.646,173.829
		z"/>
	<path d="M188.646,173.829c-1.279,0-2.56-0.488-3.535-1.465c-1.953-1.952-1.953-5.118,0-7.07l97.302-97.303
		c1.951-1.952,5.119-1.952,7.07,0c1.953,1.953,1.953,5.119,0,7.071l-97.302,97.302C191.206,173.341,189.926,173.829,188.646,173.829
		z"/>
	<path d="M165.606,201.312c-0.142,0-0.284-0.006-0.428-0.018l-20.143-1.706c-2.428-0.206-4.354-2.132-4.56-4.561l-1.707-20.144
		c-0.232-2.739,1.792-5.152,4.53-5.401c0.749-0.068,1.511-0.103,2.265-0.103c6.719,0,13.03,2.61,17.769,7.351
		c5.206,5.206,7.915,12.695,7.247,20.034C170.344,199.359,168.165,201.312,165.606,201.312z M150.084,189.979l10.118,0.856
		c-0.674-2.646-2.038-5.132-3.94-7.035c-1.97-1.97-4.393-3.329-7.039-3.979L150.084,189.979z"/>
	<path d="M165.606,201.312c-0.142,0-0.284-0.006-0.428-0.018l-20.143-1.706c-2.428-0.206-4.354-2.132-4.56-4.561l-1.707-20.144
		c-0.232-2.739,1.792-5.152,4.53-5.401c0.749-0.068,1.511-0.103,2.265-0.103c6.719,0,13.03,2.61,17.769,7.351
		c5.206,5.206,7.915,12.695,7.247,20.034C170.344,199.359,168.165,201.312,165.606,201.312z M150.084,189.979l10.118,0.856
		c-0.674-2.646-2.038-5.132-3.94-7.035c-1.97-1.97-4.393-3.329-7.039-3.979L150.084,189.979z"/>
</g>
</svg>
