<?xml version="1.0" encoding="UTF-8"?>
<!DOCTYPE svg  PUBLIC '-//W3C//DTD SVG 1.1//EN'  'http://www.w3.org/Graphics/SVG/1.1/DTD/svg11.dtd'>
<svg enable-background="new 0 0 309.5 208" version="1.1" viewBox="0 0 309.5 208" xml:space="preserve" xmlns="http://www.w3.org/2000/svg">
	<path d="m-1.341-79.776c-48.08-27.645-45.676-57.695-45.676-57.695 0-17.547 14.184-31.731 31.733-31.731 9.616 0 18.029 4.326 24.039 10.816 5.77-6.73 14.423-10.816 24.04-10.816 17.549 0 31.732 14.185 31.732 31.731 0 0 2.404 30.291-45.675 57.695h96.639" fill="none" stroke="#000" stroke-linecap="round" stroke-linejoin="round" stroke-miterlimit="10" stroke-width="10"/>
<g fill="none" stroke="#000" stroke-linecap="round" stroke-linejoin="round" stroke-miterlimit="10" stroke-width="10">
		<polygon points="170.07 -77.004 115.33 -75.589 104.79 -129.32 192.3 -238.5 219.54 -230.21 241.3 -212.77 257.57 -186.18"/>
		<polygon points="170.07 -77.004 115.33 -75.589 104.79 -129.32 192.3 -238.5 219.54 -230.21 241.3 -212.77 257.57 -186.18"/>
		<polyline points="104.79 -129.32 132.72 -124.19 158.04 -103.9 170.07 -77.004"/>
		<polyline points="104.79 -129.32 132.72 -124.19 158.04 -103.9 170.07 -77.004"/>
		<line x1="219.54" x2="133.84" y1="-230.21" y2="-123.29"/>
		<line x1="219.54" x2="133.84" y1="-230.21" y2="-123.29"/>
		<line x1="241.3" x2="155.6" y1="-212.77" y2="-105.85"/>
		<line x1="241.3" x2="155.6" y1="-212.77" y2="-105.85"/>
	<path d="m135.79-76.133c-0.109-5.632-2.805-11.492-7.495-15.25-4.878-3.909-10.995-5.115-16.516-3.994l3.886 19.751 20.125-0.507z"/>
	<path d="m135.79-76.133c-0.109-5.632-2.805-11.492-7.495-15.25-4.878-3.909-10.995-5.115-16.516-3.994l3.886 19.751 20.125-0.507z"/>
</g>
	<path d="m52.883 200.54c-0.845 0-1.702-0.215-2.487-0.666-48.716-28.012-48.543-59.1-48.376-62.425 0.08-20.26 16.587-36.716 36.866-36.716 8.809 0 17.186 3.123 24.053 8.885 6.583-5.696 15.162-8.885 24.229-8.885 20.278 0 36.786 16.456 36.866 36.716 0.149 2.957 0.315 28.036-33.895 53.09h54.918c2.761 0 5 2.238 5 5s-2.239 5-5 5h-71.89c-2.268 0-4.252-1.526-4.833-3.72-0.581-2.192 0.386-4.501 2.357-5.624 23.396-13.336 33.942-27.175 38.669-36.435 5.036-9.866 4.691-16.745 4.687-16.813-6e-3 -0.1-0.012-0.248-0.012-0.348 0-14.814-12.052-26.866-26.866-26.866-7.963 0-15.378 3.323-20.345 9.117-0.928 1.083-2.274 1.718-3.7 1.745-1.463 0.035-2.796-0.556-3.765-1.602-5.531-5.972-12.802-9.261-20.473-9.261-14.814 0-26.867 12.052-26.867 26.866 0 0.133-5e-3 0.266-0.016 0.398-0.013 0.225-1.117 27.623 43.377 53.206 2.394 1.377 3.219 4.434 1.842 6.827-0.924 1.611-2.607 2.511-4.339 2.511z"/>
	<path d="m199.91 204.21c-0.139 0-0.279-6e-3 -0.419-0.018l-54.796-4.608c-2.431-0.204-4.359-2.133-4.563-4.563l-4.608-54.797c-0.124-1.467 0.406-2.913 1.447-3.954l99.35-99.35c1.445-1.446 3.625-1.866 5.505-1.06l26.288 11.267c0.585 0.25 1.116 0.61 1.565 1.06l19.803 19.801c0.409 0.409 0.744 0.886 0.99 1.409l13.314 28.337c0.896 1.908 0.5 4.172-0.99 5.662l-99.35 99.349c-0.942 0.941-2.216 1.465-3.536 1.465zm-50.168-14.236l48.273 4.06 95.226-95.225-11.449-24.368-18.504-18.502-22.292-9.554-95.314 95.315 4.06 48.274z"/>
	<path d="m199.91 204.21c-0.139 0-0.279-6e-3 -0.419-0.018l-54.796-4.608c-2.431-0.204-4.359-2.133-4.563-4.563l-4.608-54.797c-0.124-1.467 0.406-2.913 1.447-3.954l99.35-99.35c1.445-1.446 3.625-1.866 5.505-1.06l26.288 11.267c0.585 0.25 1.116 0.61 1.565 1.06l19.803 19.801c0.409 0.409 0.744 0.886 0.99 1.409l13.314 28.337c0.896 1.908 0.5 4.172-0.99 5.662l-99.35 99.349c-0.942 0.941-2.216 1.465-3.536 1.465zm-50.168-14.236l48.273 4.06 95.226-95.225-11.449-24.368-18.504-18.502-22.292-9.554-95.314 95.315 4.06 48.274z"/>
	<path d="m199.91 204.22c-2.114 1e-3 -4.078-1.351-4.76-3.472l-8.678-27.015-21.299-21.299-26.104-7.832c-2.645-0.794-4.146-3.581-3.352-6.226 0.793-2.646 3.582-4.143 6.226-3.353l27.312 8.194c0.793 0.237 1.514 0.669 2.099 1.254l23.045 23.045c0.562 0.562 0.982 1.249 1.226 2.006l9.048 28.166c0.844 2.629-0.603 5.445-3.231 6.29-0.509 0.165-1.025 0.242-1.532 0.242z"/>
	<path d="m199.91 204.22c-2.114 1e-3 -4.078-1.351-4.76-3.472l-8.678-27.015-21.299-21.299-26.104-7.832c-2.645-0.794-4.146-3.581-3.352-6.226 0.793-2.646 3.582-4.143 6.226-3.353l27.312 8.194c0.793 0.237 1.514 0.669 2.099 1.254l23.045 23.045c0.562 0.562 0.982 1.249 1.226 2.006l9.048 28.166c0.844 2.629-0.603 5.445-3.231 6.29-0.509 0.165-1.025 0.242-1.532 0.242z"/>
	<path d="m168.84 154.03c-1.279 0-2.56-0.488-3.535-1.465-1.953-1.952-1.953-5.118 0-7.07l97.3-97.302c1.951-1.952 5.119-1.952 7.07 0 1.953 1.953 1.953 5.119 0 7.071l-97.301 97.301c-0.975 0.977-2.255 1.465-3.534 1.465z"/>
	<path d="m168.84 154.03c-1.279 0-2.56-0.488-3.535-1.465-1.953-1.952-1.953-5.118 0-7.07l97.3-97.302c1.951-1.952 5.119-1.952 7.07 0 1.953 1.953 1.953 5.119 0 7.071l-97.301 97.301c-0.975 0.977-2.255 1.465-3.534 1.465z"/>
	<path d="m188.65 173.83c-1.279 0-2.56-0.488-3.535-1.465-1.953-1.952-1.953-5.118 0-7.07l97.302-97.303c1.951-1.952 5.119-1.952 7.07 0 1.953 1.953 1.953 5.119 0 7.071l-97.302 97.302c-0.975 0.977-2.255 1.465-3.535 1.465z"/>
	<path d="m188.65 173.83c-1.279 0-2.56-0.488-3.535-1.465-1.953-1.952-1.953-5.118 0-7.07l97.302-97.303c1.951-1.952 5.119-1.952 7.07 0 1.953 1.953 1.953 5.119 0 7.071l-97.302 97.302c-0.975 0.977-2.255 1.465-3.535 1.465z"/>
	<path d="m165.61 201.31c-0.142 0-0.284-6e-3 -0.428-0.018l-20.143-1.706c-2.428-0.206-4.354-2.132-4.56-4.561l-1.707-20.144c-0.232-2.739 1.792-5.152 4.53-5.401 0.749-0.068 1.511-0.103 2.265-0.103 6.719 0 13.03 2.61 17.769 7.351 5.206 5.206 7.915 12.695 7.247 20.034-0.235 2.595-2.414 4.548-4.973 4.548zm-15.522-11.333l10.118 0.856c-0.674-2.646-2.038-5.132-3.94-7.035-1.97-1.97-4.393-3.329-7.039-3.979l0.861 10.158z"/>
	<path d="m165.61 201.31c-0.142 0-0.284-6e-3 -0.428-0.018l-20.143-1.706c-2.428-0.206-4.354-2.132-4.56-4.561l-1.707-20.144c-0.232-2.739 1.792-5.152 4.53-5.401 0.749-0.068 1.511-0.103 2.265-0.103 6.719 0 13.03 2.61 17.769 7.351 5.206 5.206 7.915 12.695 7.247 20.034-0.235 2.595-2.414 4.548-4.973 4.548zm-15.522-11.333l10.118 0.856c-0.674-2.646-2.038-5.132-3.94-7.035-1.97-1.97-4.393-3.329-7.039-3.979l0.861 10.158z"/>
</svg>
