<?xml version="1.0" encoding="UTF-8"?>
<!DOCTYPE svg  PUBLIC '-//W3C//DTD SVG 1.1//EN'  'http://www.w3.org/Graphics/SVG/1.1/DTD/svg11.dtd'>
<svg width="309.5px" height="208px" enable-background="new 0 143 309.5 208" version="1.1" viewBox="-50 143 309.5 208" xml:space="preserve" xmlns="http://www.w3.org/2000/svg">
					<path d="m101.4 347.1l-85.5-49.4v-98.7l85.5-49.4 85.5 49.4v98.7l-85.5 49.4zm-73.9-56.1l73.9 42.7 73.9-42.7v-85.4l-73.9-42.7-73.9 42.7v85.4z"/>
					<path d="m60.2 272.1l-23.7-23.7 23.7-23.7 8.2 8.2-15.6 15.5 15.6 15.6-8.2 8.1z"/>
					<path d="m142.7 272.1l-8.2-8.2 15.6-15.6-15.6-15.5 8.2-8.2 23.7 23.7-23.7 23.8z"/>
					<path d="m109.9 218.5l10.4 5.2-27.3 54.5-10.4-5.2 27.3-54.5z"/>
</svg>
