<?xml version="1.0" encoding="UTF-8"?>
<svg enable-background="new 0 0 161.5 122.3" version="1.1" viewBox="0 0 161.5 122.3" xml:space="preserve" xmlns="http://www.w3.org/2000/svg">
<g fill="#796ec1">
		<path d="M3.1,0h10.5v19.3h7.3V0h10.6v47.6H20.9V26.8h-7.3v20.8H3.1V0z"/>
		<path d="M38.8,0h10.5v47.6H38.8V0z"/>
		<path d="m56.3 52.7c1.3-0.3 2.3-0.9 3-1.6 0.8-0.8 1.1-1.9 1.1-3.5h-5.1v-9h9.1v7.8c-0.1 5.9-2.6 9.1-7.6 9.5l-0.5-3.2z"/>
		<path d="M7.2,65.6H0v-7.8h24.9v7.8h-7.1v39.8H7.2V65.6z"/>
		<path d="M29.2,57.8h10.5V77h7.3V57.8h10.6v47.6H47.1V84.6h-7.3v20.8H29.2V57.8z"/>
		<path d="M64.9,57.8h21.4v7.2H75.4v11.8h8.3V84h-8.3v14.2h11v7.1H64.9V57.8z"/>
		<path d="m91.1 57.8h13.1c5.2 0 9.1 0.9 11.8 2.8 2.7 1.8 4 5.1 4 9.8 0 3.2-0.4 5.7-1.2 7.6s-2.4 3.3-4.6 4.4l6.5 23h-10.9l-5.2-21.4h-3v21.3h-10.5v-47.5zm13.5 20.2c2.1 0 3.6-0.6 4.4-1.7s1.3-2.8 1.3-5-0.4-3.8-1.2-4.8c-0.8-1.1-2.1-1.6-4.1-1.6h-3.4v13.1h3z"/>
		<path d="M126.4,57.8h21.4v7.2h-10.9v11.8h8.3V84h-8.3v14.2h11v7.1h-21.5V57.8z"/>
		<path d="M151.8,96.4h9v8.9h-9V96.4z M152,57.9h9.5L158,93.3h-3.3L152,57.9z"/>
</g>
		<path d="m88 109.6h0.4l-2.7 12.7h-0.4l2.7-12.7z"/>
		<path d="m90.7 112.1l0.5-1.5h-0.2l0.3-1.3h0.5l-0.3 1.3-0.6 1.5h-0.2z"/>
		<path d="m94.7 109.6h0.3l3.5 9.8 7.6-9.8h0.3l-2.7 12.7h-0.4l2.5-11.9-7.3 9.4h-0.3l-3.3-9.4-2.5 11.9h-0.4l2.7-12.7z"/>
		<path d="m114.1 109.6h2.6l1.9 7.2 5-7.2h2.6l-2.7 12.7h-2.5l1.8-8.4-4.3 6.3h-1.3l-1.6-6.3-1.8 8.4h-2.5l2.8-12.7z"/>
		<path d="m132.4 109.6h2.2l1.8 12.7h-2.5l-0.4-3.2h-4.1l-1.7 3.2h-2.5l7.2-12.7zm1 7.8l-0.6-5-2.7 5h3.3z"/>
		<path d="m137.8 122.3l2.7-12.7h5.4c0.5 0 0.9 0.1 1.3 0.3s0.7 0.5 1 0.8 0.5 0.7 0.6 1.1 0.2 0.9 0.2 1.3c0 0.5-0.1 0.9-0.2 1.4-0.2 0.4-0.4 0.9-0.6 1.3-0.3 0.4-0.6 0.7-0.9 1.1-0.4 0.3-0.8 0.6-1.2 0.7l1.7 4.8h-2.8l-1.5-4.3h-2.2l-0.9 4.3h-2.6zm6.6-6.5c0.2 0 0.5-0.1 0.7-0.2s0.4-0.3 0.6-0.6c0.2-0.2 0.3-0.5 0.4-0.8s0.2-0.6 0.2-1c0-0.5-0.1-0.8-0.3-1.1s-0.5-0.5-0.8-0.5h-2.8l-0.9 4.1h2.9z"/>
		<path d="m152.7 117.8l-2.6-8.2h2.7l1.6 6.1 4.2-6.1h2.7l-6.1 8.3-0.9 4.4h-2.5l0.9-4.5z"/>
</svg>
