<?xml version="1.0" encoding="UTF-8"?>
<!DOCTYPE svg  PUBLIC '-//W3C//DTD SVG 1.1//EN'  'http://www.w3.org/Graphics/SVG/1.1/DTD/svg11.dtd'>
<svg enable-background="new 0 143 309.5 208" version="1.1" viewBox="-50 143 309.5 208" xml:space="preserve" xmlns="http://www.w3.org/2000/svg">
				<path d="m143 209.7c-1.6-1.6-4.1-2.2-6.3-1.5l-125.3 41c-2.4 0.8-4.1 3-4.2 5.5s1.3 4.9 3.6 6l40.1 18.2c3.1 1.4 6.8 0 8.2-3.1s0-6.8-3.1-8.2l-25.6-11.5 98.8-32.3-31.5 100.2-22-45.8c-1.5-3.1-5.2-4.4-8.2-2.9-0.9 0.5-1.7 1.1-2.3 1.9-0.3 0.2-0.5 0.4-0.8 0.6l-59 59c-2.4 2.4-2.4 6.3 0 8.7 1.2 1.2 2.8 1.8 4.4 1.8s3.2-0.6 4.4-1.8l54.1-54.1 25 52c1 2.1 3.2 3.5 5.6 3.5h0.4c2.5-0.2 4.7-1.9 5.5-4.3l39.8-126.5c0.7-2.3 0.1-4.7-1.6-6.4z"/>
				<path d="m116.3 146.9c-38 0-71.8 22.7-86.2 57.9-1.3 3.2 0.2 6.8 3.4 8.1s6.8-0.2 8.1-3.4c12.5-30.5 41.8-50.2 74.8-50.2 44.5 0 80.8 36.2 80.8 80.8 0 36.6-24.7 68.7-60 78.1-3.3 0.9-5.3 4.3-4.4 7.6 0.7 2.8 3.2 4.6 6 4.6 0.5 0 1.1-0.1 1.6-0.2 40.7-10.8 69.2-47.8 69.2-90-0.2-51.5-42-93.3-93.3-93.3z"/>
				<path d="m136.5 289.2c-3.2 1.2-4.8 4.8-3.5 8 0.9 2.5 3.3 4 5.8 4 0.7 0 1.5-0.1 2.2-0.4 12.2-4.7 22.7-12.9 30.2-23.7 7.7-11 11.8-24 11.8-37.5 0-36.2-29.4-65.6-65.6-65.6-25.2 0-48.5 14.7-59.3 37.5-1.5 3.1-0.2 6.8 2.9 8.2 3.1 1.5 6.8 0.1 8.2-2.9 8.8-18.5 27.7-30.4 48.1-30.4 29.3 0 53.2 23.9 53.2 53.2 0 21.8-13.7 41.8-34 49.6z"/>
</svg>
